# Blender v3.2.1 OBJ File: 'SpaceGun1.blend'
# www.blender.org
mtllib SpaceGun-D3.mtl
o D3_Cilindro.001
v 0.170210 1.781264 -0.036086
v -0.012966 1.771166 -0.135354
v 0.050015 1.774532 -0.032761
v 0.044248 1.774532 -0.241271
v 0.396865 1.794121 -0.146690
v 0.245098 1.786009 -0.393909
v 0.258996 1.786009 0.108541
v -0.182407 1.761675 -0.130667
v -0.030640 1.769787 0.116552
v -0.044538 1.769787 -0.385897
v 0.393818 1.848554 -0.146606
v 0.242051 1.840442 -0.393824
v 0.255949 1.840442 0.108625
v -0.185453 1.816108 -0.130582
v -0.033686 1.824220 0.116636
v -0.047584 1.824220 -0.385813
v 0.265888 1.839631 -0.143067
v 0.181207 1.835105 -0.281007
v 0.188962 1.835105 -0.000656
v -0.057327 1.821527 -0.134126
v 0.027354 1.826053 0.003814
v 0.019599 1.826053 -0.276537
v 0.250887 2.107657 -0.142652
v 0.166206 2.103131 -0.280593
v 0.173961 2.103131 -0.000241
v -0.072328 2.089554 -0.133712
v 0.012353 2.094079 0.004229
v 0.004598 2.094079 -0.276122
v -0.523504 1.840693 -0.121232
v -0.521154 1.840681 -0.028261
v -0.526297 1.840681 -0.214190
v -0.533453 2.018449 -0.120956
v -0.531103 2.018436 -0.027986
v -0.536246 2.018436 -0.213915
v 0.197098 1.835105 0.293481
v 0.035490 1.826053 0.297952
v 0.173071 1.835105 -0.575145
v 0.011463 1.826053 -0.570675
v 0.182097 2.103131 0.293896
v 0.020489 2.094079 0.298367
v 0.158070 2.103131 -0.574730
v -0.003537 2.094079 -0.570260
v 0.201890 1.835105 0.452087
v 0.040278 1.826053 0.456407
v 0.168284 1.835105 -0.733586
v 0.006671 1.826053 -0.729267
v 0.186889 2.103131 0.452488
v 0.025277 2.094079 0.456808
v 0.153282 2.103131 -0.733186
v -0.008330 2.094079 -0.728866
v -0.522760 2.064996 -0.554570
v -0.507759 1.796969 -0.554985
v -0.483732 1.796969 0.313641
v -0.498733 2.064996 0.314056
v -0.527552 2.064996 -0.713176
v -0.512551 1.796969 -0.713577
v -0.478944 1.796969 0.472097
v -0.493946 2.064996 0.472498
v 0.037884 1.826053 0.377179
v 0.022883 2.094079 0.377587
v 0.184493 2.103131 0.373192
v 0.199494 1.835105 0.372784
v -0.481338 1.796969 0.392869
v -0.496339 2.064996 0.393277
v 0.258388 1.973644 -0.142859
v 0.181461 1.969118 -0.000449
v 0.012099 1.960067 -0.276330
v 0.173707 1.969118 -0.280800
v 0.019854 1.960067 0.004022
v -0.531272 1.929559 -0.214052
v -0.526129 1.929559 -0.028123
v 0.189597 1.969118 0.293689
v 0.003963 1.960067 -0.570467
v 0.165571 1.969118 -0.574938
v 0.027989 1.960067 0.298159
v 0.194390 1.969118 0.452288
v -0.000830 1.960067 -0.729066
v 0.160783 1.969118 -0.733386
v 0.032777 1.960067 0.456607
v -0.515259 1.930982 -0.554777
v -0.491233 1.930982 0.313849
v -0.520052 1.930982 -0.713376
v -0.486445 1.930982 0.472297
v 0.191993 1.969118 0.372988
v -0.005934 2.094079 -0.649563
v 0.009067 1.826053 -0.649971
v 0.155676 2.103131 -0.653958
v 0.170677 1.835105 -0.654366
v -0.525156 2.064996 -0.633873
v -0.510155 1.796969 -0.634281
v 0.163177 1.969118 -0.654162
v -0.533975 1.903149 -0.120925
v -0.533891 1.910885 -0.102214
v -0.534925 1.910885 -0.139611
v -0.536932 1.955974 -0.120843
v -0.535982 1.948238 -0.102156
v -0.537016 1.948238 -0.139553
v -0.525038 1.953310 -0.611482
v -0.522539 1.908656 -0.611557
v -0.495074 1.908662 0.370895
v -0.497572 1.953303 0.370972
v -0.526389 1.953309 -0.656185
v -0.523890 1.908655 -0.656260
v -0.493723 1.908661 0.415586
v -0.496222 1.953302 0.415662
v -0.493881 1.899416 0.393225
v -0.497414 1.962548 0.393333
v -0.536185 1.929562 -0.147327
v -0.534722 1.929562 -0.094440
v -0.523509 1.930983 -0.602261
v -0.496603 1.930983 0.361678
v -0.525419 1.930982 -0.665481
v -0.494693 1.930982 0.424880
v -0.526231 1.962557 -0.633818
v -0.522697 1.899407 -0.633924
v 0.308405 1.793334 -0.148221
v 0.249522 1.789968 -0.253219
v 0.247056 1.789968 -0.044645
v 0.067941 1.779869 -0.151064
v 0.126824 1.783235 -0.046066
v 0.129290 1.783235 -0.254641
v 0.273925 1.791403 -0.148629
v 0.231928 1.789002 -0.223515
v 0.230170 1.789002 -0.074757
v 0.102422 1.781800 -0.150657
v 0.144418 1.784201 -0.075770
v 0.146177 1.784201 -0.224529
v 0.232250 1.789069 -0.149122
v 0.210664 1.787835 -0.187614
v 0.209760 1.787835 -0.111151
v 0.144096 1.784133 -0.150164
v 0.165683 1.785367 -0.111672
v 0.166587 1.785367 -0.188135
v 0.169611 1.781568 -0.254164
v 0.249522 1.786039 -0.253219
v 0.308405 1.789172 -0.148221
v 0.306010 1.789032 -0.144177
v 0.129290 1.779312 -0.254641
v 0.122655 1.778924 -0.243439
v 0.175292 1.781563 -0.045493
v 0.247056 1.785578 -0.044645
v 0.249522 1.839578 -0.253219
v 0.231928 1.838063 -0.223515
v 0.273925 1.840244 -0.148629
v 0.270709 1.839967 -0.143200
v 0.308405 1.842636 -0.148221
v 0.306010 1.842430 -0.144177
v 0.230170 1.837543 -0.074757
v 0.247056 1.838904 -0.044645
v 0.126824 1.778851 -0.046066
v 0.067941 1.775718 -0.151064
v -0.492666 1.930983 0.326610
v -0.488645 1.930982 0.459646
v -0.486758 1.826770 0.328917
v -0.498424 2.035195 0.329242
v -0.482887 1.826769 0.457019
v -0.494553 2.035195 0.457334
v -0.484685 1.824303 0.392964
v -0.496626 2.037662 0.393292
vt 0.460356 0.465198
vt 0.458660 0.466103
vt 0.456061 0.466103
vt 0.454783 0.466103
vt 0.461663 0.458706
vt 0.460682 0.465305
vt 0.460682 0.466922
vt 0.460682 0.466994
vt 0.460682 0.467325
vt 0.460356 0.467226
vt 0.458665 0.467741
vt 0.459244 0.466745
vt 0.459924 0.467606
vt 0.460356 0.467722
vt 0.459924 0.467569
vt 0.460682 0.467727
vt 0.460682 0.468638
vt 0.460356 0.467535
vt 0.458656 0.468638
vt 0.458611 0.470330
vt 0.456061 0.475694
vt 0.389190 0.450486
vt 0.401034 0.475791
vt 0.377863 0.507321
vt 0.334535 0.443098
vt 0.448578 0.466103
vt 0.444753 0.466103
vt 0.443832 0.430434
vt 0.494177 0.360454
vt 0.494177 0.505252
vt 0.489375 0.497696
vt 0.483838 0.489536
vt 0.483838 0.461260
vt 0.463756 0.441996
vt 0.451342 0.461588
vt 0.348014 0.277648
vt 0.348169 0.289293
vt 0.346342 0.290383
vt 0.346653 0.278460
vt 0.459924 0.467423
vt 0.459924 0.467153
vt 0.459924 0.466662
vt 0.459228 0.466333
vt 0.748671 0.494789
vt 0.703450 0.494789
vt 0.718680 0.310241
vt 0.748670 0.310241
vt 0.954584 0.514925
vt 0.954583 0.460372
vt 0.999804 0.460372
vt 0.999804 0.514925
vt 0.434536 0.480401
vt 0.434536 0.505099
vt 0.484086 0.497696
vt 0.484086 0.505252
vt 0.434536 0.468911
vt 0.447956 0.468911
vt 0.449909 0.497696
vt 0.463756 0.497696
vt 0.456061 0.483967
vt 0.463756 0.483967
vt 0.451240 0.497696
vt 0.411632 0.427925
vt 0.387470 0.361069
vt 0.756330 0.262341
vt 0.709115 0.289709
vt 0.708944 0.180642
vt 0.756236 0.207767
vt 0.661800 0.262481
vt 0.661748 0.207914
vt 0.793891 0.494789
vt 0.793891 0.593923
vt 0.748671 0.593923
vt 0.954583 0.405820
vt 0.999803 0.405820
vt 0.657851 0.494789
vt 0.612630 0.494789
vt 0.627860 0.310241
vt 0.657851 0.310241
vt 0.703071 0.494789
vt 0.703071 0.593923
vt 0.657851 0.593923
vt 0.091519 0.452195
vt 0.091519 0.413472
vt 0.708688 0.023565
vt 0.740015 0.023443
vt 0.677361 0.023545
vt 0.091519 0.490719
vt 0.388030 0.082581
vt 0.388030 0.141720
vt 0.000190 0.141720
vt 0.000190 0.082581
vt 0.703071 0.769205
vt 0.657851 0.769205
vt 0.999804 0.614058
vt 0.954584 0.614059
vt 0.494177 0.114651
vt 0.855408 0.207596
vt 0.855502 0.262169
vt 0.909363 0.404897
vt 0.909362 0.279310
vt 0.954583 0.306686
vt 0.562640 0.262576
vt 0.562588 0.208009
vt 0.434536 0.611211
vt 0.383060 0.611211
vt 0.954590 0.253280
vt 0.954587 0.198727
vt 0.999807 0.198725
vt 0.999810 0.253277
vt 0.954580 0.722068
vt 0.954577 0.667516
vt 0.999797 0.667513
vt 0.999800 0.722066
vt 0.535851 0.207967
vt 0.535929 0.262533
vt 0.509218 0.262491
vt 0.509115 0.207924
vt 0.494177 0.082945
vt 0.388030 0.023443
vt 0.494177 0.023863
vt 0.954586 0.279983
vt 0.909366 0.279984
vt 0.909370 0.253282
vt 0.954581 0.640787
vt 0.999801 0.640786
vt 0.882240 0.262192
vt 0.882120 0.207618
vt 0.908832 0.207640
vt 0.908977 0.262214
vt 0.383060 0.638483
vt 0.434536 0.638483
vt 0.434536 0.665755
vt 0.383060 0.665755
vt 0.793891 0.769205
vt 0.748670 0.769205
vt 0.855553 0.032247
vt 0.882265 0.032269
vt 0.999810 0.897347
vt 0.954590 0.897350
vt 0.909367 0.198730
vt 0.909357 0.023448
vt 0.954577 0.023445
vt 0.509394 0.032596
vt 0.536131 0.032639
vt 0.204139 0.665755
vt 0.204139 0.638483
vt 0.204139 0.611211
vt 0.908977 0.032291
vt 0.999797 0.023443
vt 0.909360 0.722071
vt 0.909370 0.897352
vt 0.703450 0.593923
vt 0.703450 0.769205
vt 0.909360 0.640789
vt 0.909357 0.667518
vt 0.999807 0.279981
vt 0.999803 0.306686
vt 0.909363 0.514925
vt 0.909364 0.614059
vt 0.612630 0.593923
vt 0.612630 0.769205
vt 0.687841 0.310241
vt 0.909363 0.486826
vt 0.778661 0.310241
vt 0.562868 0.032681
vt 0.000190 0.023443
vt 0.175825 0.286556
vt 0.148061 0.272490
vt 0.151173 0.264965
vt 0.176651 0.264948
vt 0.240315 0.293590
vt 0.240294 0.263567
vt 0.262818 0.263714
vt 0.265417 0.270012
vt 0.105429 0.243397
vt 0.133004 0.257461
vt 0.129892 0.264986
vt 0.104603 0.265002
vt 0.148051 0.257442
vt 0.175782 0.243337
vt 0.303137 0.233601
vt 0.303137 0.263642
vt 0.280625 0.263735
vt 0.278030 0.257431
vt 0.240366 0.233525
vt 0.265428 0.257415
vt 0.095001 0.292015
vt 0.057371 0.272814
vt 0.060485 0.265277
vt 0.094999 0.265285
vt 0.133014 0.272509
vt 0.105471 0.286612
vt 0.303044 0.293665
vt 0.278011 0.270027
vt 0.095001 0.238555
vt 0.057372 0.257741
vt 0.049839 0.254618
vt 0.049781 0.238381
vt 0.004561 0.238147
vt 0.042278 0.257675
vt 0.039099 0.265184
vt 0.004331 0.264874
vt 0.271752 0.233497
vt 0.271732 0.254823
vt 0.140520 0.254352
vt 0.140600 0.242476
vt 0.049781 0.292173
vt 0.049838 0.275936
vt 0.004561 0.292392
vt 0.042278 0.272880
vt 0.271679 0.293680
vt 0.271711 0.272621
vt 0.140652 0.287474
vt 0.140545 0.275598
vt 0.042147 0.272747
vt 0.004096 0.291600
vt 0.220495 0.301699
vt 0.205387 0.301699
vt 0.205387 0.294826
vt 0.205387 0.255745
vt 0.205387 0.228326
vt 0.220495 0.228326
vt 0.220495 0.255745
vt 0.220495 0.294826
vt 0.452923 0.466103
vt 0.461268 0.468638
vt 0.461268 0.470330
vt 0.460671 0.470330
vt 0.460690 0.468638
vt 0.463152 0.455997
vt 0.461268 0.466922
vt 0.470347 0.470330
vt 0.464214 0.461260
vt 0.461945 0.466922
vt 0.461945 0.468638
vt 0.461945 0.470330
vt 0.448414 0.466004
vt 0.364598 0.278577
vt 0.364598 0.290213
vt 0.465730 0.466922
vt 0.463283 0.466922
vt 0.466511 0.470330
vt 0.462659 0.468638
vt 0.463241 0.470330
vt 0.462204 0.470330
vt 0.450362 0.466103
vt 0.483838 0.489585
vt 0.315235 0.249328
vt 0.333267 0.249786
vt 0.333267 0.290356
vt 0.315261 0.289899
vt 0.095431 0.291756
vt 0.140690 0.291803
vt 0.185941 0.291685
vt 0.140630 0.238147
vt 0.095381 0.238269
vt 0.185891 0.238191
vt 0.095380 0.265010
vt 0.185941 0.264941
vn 0.0559 -0.9984 -0.0015
vn 0.8782 0.0484 0.4759
vn 0.0276 -0.0000 0.9996
vn -0.0424 0.9991 -0.0067
vn -0.0693 0.9975 0.0098
vn -0.8782 -0.0484 -0.4759
vn -0.0276 0.0000 -0.9996
vn 0.8505 0.0484 -0.5237
vn -0.8505 -0.0484 0.5237
vn -0.1136 -0.0048 -0.9935
vn -0.0563 0.9983 -0.0142
vn -0.0697 0.9975 -0.0060
vn 0.8722 0.0000 -0.4891
vn -0.0420 0.9991 0.0091
vn -0.0554 0.9983 0.0173
vn -0.0559 0.9984 0.0015
vn -0.9981 -0.0559 0.0276
vn -0.0585 -0.0048 0.9983
vn -0.0356 -0.9989 -0.0304
vn -0.1451 0.9888 0.0354
vn -0.1469 0.9888 -0.0273
vn -0.0339 -0.9989 0.0323
vn 0.0559 -0.9984 -0.0017
vn -0.0302 -0.0001 -0.9995
vn 0.9981 0.0559 -0.0276
vn -0.0267 -0.0000 -0.9996
vn 0.0267 0.0000 0.9996
vn -0.0559 0.9984 0.0017
vn 0.9980 0.0559 -0.0302
vn 0.0302 0.0001 0.9995
vn 0.0302 0.0002 0.9995
vn -0.0302 -0.0002 -0.9995
vn -0.9924 -0.1166 0.0383
vn -0.9967 -0.0490 -0.0646
vn -0.9997 0.0054 0.0219
vn -0.9929 -0.1166 0.0217
vn -0.9909 -0.0623 0.1195
vn -0.9960 -0.0623 -0.0645
vn -0.9997 0.0061 0.0246
vn -0.9992 0.0054 0.0385
vn -0.9916 -0.0490 0.1196
vn -0.9873 -0.0483 0.1512
vn -0.9925 -0.1173 0.0356
vn -0.9865 -0.0626 0.1511
vn -0.9874 -0.1548 0.0322
vn -0.9939 -0.0664 -0.0875
vn -0.9952 -0.0447 -0.0876
vn -0.9877 -0.1548 0.0224
vn -0.9946 -0.0483 -0.0913
vn -0.9993 0.0061 0.0358
vn -0.9939 -0.0627 -0.0913
vn -0.9985 0.0447 0.0326
vn -0.9869 -0.0663 0.1473
vn -0.9928 -0.1173 0.0244
vn -0.9880 -0.0446 0.1475
vn -0.9987 0.0447 0.0226
vn -0.8604 -0.0000 -0.5096
vn 0.0118 0.0000 -0.9999
vn -0.8722 0.0000 0.4891
vn 0.8604 0.0000 0.5096
vn -0.0118 -0.0000 0.9999
vn 0.0559 -0.9984 0.0007
vn -0.9860 -0.0541 0.1575
vn -0.9859 -0.0567 0.1575
vn -0.9937 -0.0541 -0.0977
vn -0.9936 -0.0568 -0.0977
vn -0.9995 0.0073 0.0313
vn -0.9925 -0.1185 0.0289
vn -0.9995 0.0073 0.0291
vn -0.9925 -0.1185 0.0311
usemtl D3
s off
f 6/1/1 5/2/1 137/3/1 136/4/1 135/5/1 134/6/1
f 138/7/1 139/8/1 4/9/1 10/10/1 6/1/1 134/6/1
f 7/11/2 5/2/2 11/12/2 13/13/2
f 9/14/3 7/11/3 13/13/3 15/15/3
f 2/16/1 3/17/1 9/14/1 8/18/1
f 3/17/1 1/19/1 7/11/1 9/14/1
f 137/3/1 5/2/1 7/11/1 1/19/1 140/20/1 141/21/1
f 4/9/1 2/16/1 8/18/1 10/10/1
f 14/22/4 15/23/4 21/24/4 20/25/4
f 147/26/5 11/27/5 12/28/5 18/29/5 17/30/5 145/31/5 144/32/5 143/33/5 142/34/5 146/35/5
f 146/36/5 144/37/5 145/38/5 147/39/5
f 10/10/6 8/18/6 14/40/6 16/41/6
f 6/1/7 10/10/7 16/41/7 12/42/7
f 5/2/8 6/1/8 12/42/8 11/43/8
f 8/18/9 9/14/9 15/15/9 14/40/9
f 67/44/10 22/45/10 31/46/10 70/47/10
f 66/48/2 65/49/2 23/50/2 25/51/2
f 15/23/11 13/52/11 19/53/11 21/24/11
f 145/54/12 17/55/12 19/53/12 13/52/12 11/56/12 147/57/12 149/58/12 148/59/12
f 118/60/13 124/61/13 148/59/13 149/62/13
f 16/63/14 14/22/14 20/25/14 22/64/14
f 12/28/15 16/63/15 22/64/15 18/29/15
f 25/65/16 23/66/16 26/67/16 27/68/16
f 23/66/16 24/69/16 28/70/16 26/67/16
f 67/44/17 28/71/17 42/72/17 73/73/17
f 65/49/8 68/74/8 24/75/8 23/50/8
f 69/76/18 27/77/18 33/78/18 71/79/18
f 69/76/17 21/80/17 36/81/17 75/82/17
f 22/64/19 20/25/19 29/83/19 31/84/19
f 27/68/20 26/67/20 32/85/20 33/86/20
f 26/67/21 28/70/21 34/87/21 32/85/21
f 20/25/22 21/24/22 30/88/22 29/83/22
f 86/89/23 38/90/23 52/91/23 90/92/23
f 75/82/24 36/81/24 53/93/24 81/94/24
f 66/48/25 25/51/25 39/95/25 72/96/25
f 18/29/1 22/64/1 38/90/1 37/97/1
f 25/65/16 27/68/16 40/98/16 39/99/16
f 68/74/25 18/100/25 37/101/25 74/102/25
f 28/70/16 24/69/16 41/103/16 42/104/16
f 21/24/1 19/53/1 35/105/1 36/106/1
f 78/107/26 77/108/26 50/109/26 49/110/26
f 79/111/27 76/112/27 47/113/27 48/114/27
f 85/115/28 87/116/28 49/117/28 50/118/28
f 88/119/23 86/89/23 46/120/23 45/121/23
f 91/122/29 88/123/29 45/124/29 78/107/29
f 84/125/29 61/126/29 47/113/29 76/112/29
f 61/127/28 60/128/28 48/129/28 47/130/28
f 59/131/23 62/132/23 43/133/23 44/134/23
f 73/73/30 42/72/30 51/135/30 80/136/30
f 60/128/28 40/98/28 54/137/28 64/138/28
f 79/111/31 48/114/31 58/139/31 83/140/31
f 77/108/32 46/141/32 56/142/32 82/143/32
f 85/115/28 50/118/28 55/144/28 89/145/28
f 59/131/23 44/134/23 57/146/23 63/147/23
f 36/106/23 59/131/23 63/147/23 53/148/23
f 48/129/28 60/128/28 64/138/28 58/149/28
f 36/106/23 35/105/23 62/132/23 59/131/23
f 39/99/28 40/98/28 60/128/28 61/127/28
f 50/109/32 77/108/32 82/143/32 55/150/32
f 44/151/31 79/111/31 83/140/31 57/152/31
f 38/153/30 73/73/30 80/136/30 52/154/30
f 62/155/29 84/125/29 76/112/29 43/156/29
f 87/157/29 91/122/29 78/107/29 49/110/29
f 44/151/27 43/156/27 76/112/27 79/111/27
f 45/124/26 46/141/26 77/108/26 78/107/26
f 24/75/25 68/74/25 74/102/25 41/158/25
f 19/159/25 66/48/25 72/96/25 35/160/25
f 40/161/24 75/82/24 81/94/24 54/162/24
f 27/77/17 69/76/17 75/82/17 40/161/17
f 21/80/18 69/76/18 71/79/18 30/163/18
f 17/164/8 18/100/8 68/74/8 65/49/8
f 22/45/17 67/44/17 73/73/17 38/153/17
f 19/159/2 17/164/2 65/49/2 66/48/2
f 28/71/10 67/44/10 70/47/10 34/165/10
f 41/158/29 74/102/29 91/122/29 87/157/29
f 42/104/28 85/115/28 89/145/28 51/166/28
f 74/102/29 37/101/29 88/123/29 91/122/29
f 37/97/23 38/90/23 86/89/23 88/119/23
f 42/104/28 41/103/28 87/116/28 85/115/28
f 46/120/23 86/89/23 90/92/23 56/167/23
f 156/168/33 104/169/33 106/170/33 158/171/33
f 34/172/34 70/173/34 108/174/34 97/175/34
f 155/176/35 101/177/35 107/178/35 159/179/35
f 158/171/36 106/170/36 100/180/36 154/181/36
f 30/182/37 71/183/37 109/184/37 93/185/37
f 70/173/38 31/186/38 94/187/38 108/174/38
f 55/188/39 102/189/39 114/190/39 89/191/39
f 159/179/40 107/178/40 105/192/40 157/193/40
f 71/183/41 33/194/41 96/195/41 109/184/41
f 51/196/42 98/197/42 110/198/42 80/199/42
f 52/200/43 99/201/43 115/202/43 90/203/43
f 80/199/44 110/198/44 99/201/44 52/200/44
f 29/204/45 30/182/45 93/185/45 92/205/45
f 154/181/46 100/180/46 111/206/46 152/207/46
f 152/207/47 111/206/47 101/177/47 155/176/47
f 31/186/48 29/204/48 92/205/48 94/187/48
f 82/208/49 112/209/49 102/189/49 55/188/49
f 89/191/50 114/190/50 98/197/50 51/196/50
f 56/210/51 103/211/51 112/209/51 82/208/51
f 33/194/52 32/212/52 95/213/52 96/195/52
f 153/214/53 113/215/53 104/169/53 156/168/53
f 90/203/54 115/202/54 103/216/54 56/217/54
f 157/193/55 105/192/55 113/215/55 153/214/55
f 32/212/56 34/172/56 97/175/56 95/213/56
f 140/218/1 1/219/1 3/220/1 2/221/1 4/222/1 139/223/1 151/224/1 150/225/1
f 118/60/57 116/226/57 136/4/57 137/3/57 141/21/57
f 119/227/13 120/228/13 150/229/13 151/230/13
f 150/229/58 120/228/58 118/60/58 141/21/58 140/20/58
f 136/4/59 116/226/59 117/231/59 135/5/59
f 138/7/60 121/232/60 119/227/60 151/230/60 139/8/60
f 135/5/61 117/231/61 121/232/61 138/7/61 134/6/61
f 122/233/13 123/234/13 143/33/13 144/32/13
f 121/232/62 117/231/62 123/234/62 127/235/62
f 121/232/62 127/235/62 125/236/62 119/227/62
f 143/33/60 123/234/60 117/231/60 142/34/60
f 124/61/62 118/60/62 120/228/62 126/237/62
f 142/34/59 117/231/59 116/226/59 146/238/59
f 116/239/58 122/240/58 144/37/58 146/36/58
f 126/237/62 120/228/62 119/227/62 125/236/62
f 127/235/62 123/234/62 129/241/62 133/242/62
f 123/234/62 122/233/62 128/243/62 129/241/62
f 127/235/62 133/242/62 131/244/62 125/236/62
f 130/245/62 124/61/62 126/237/62 132/246/62
f 122/233/62 124/61/62 130/245/62 128/243/62
f 132/246/62 126/237/62 125/236/62 131/244/62
f 133/242/62 129/241/62 128/243/62 130/245/62 132/246/62 131/244/62
f 116/226/57 118/60/57 149/62/57 147/26/57 146/247/57
f 148/59/60 124/61/60 122/233/60 144/248/60 145/31/60
f 135/249/13 142/250/13 146/251/13 136/252/13
f 72/96/29 39/95/29 61/126/29 84/125/29
f 35/160/29 72/96/29 84/125/29 62/155/29
f 58/253/63 157/193/63 153/214/63 83/254/63
f 83/254/64 153/214/64 156/168/64 57/255/64
f 81/256/65 152/207/65 155/176/65 54/257/65
f 53/258/66 154/181/66 152/207/66 81/256/66
f 64/259/67 159/179/67 157/193/67 58/253/67
f 63/260/68 158/171/68 154/181/68 53/258/68
f 54/257/69 155/176/69 159/179/69 64/259/69
f 57/255/70 156/168/70 158/171/70 63/260/70
