# Blender v3.2.1 OBJ File: 'Stop Button 02.blend'
# www.blender.org
mtllib Stop Button 03.mtl
o stand_Cylinder.001
v 0.000000 1.000000 -0.000000
v 0.000000 1.000000 0.086112
v 0.195090 0.980785 -0.000000
v 0.195090 0.980785 0.086112
v 0.382683 0.923879 -0.000000
v 0.382683 0.923879 0.086112
v 0.555570 0.831469 -0.000000
v 0.555570 0.831469 0.086112
v 0.707107 0.707107 -0.000000
v 0.707107 0.707106 0.086112
v 0.831470 0.555570 -0.000000
v 0.831470 0.555570 0.086112
v 0.923879 0.382683 -0.000000
v 0.923879 0.382683 0.086112
v 0.980785 0.195090 -0.000000
v 0.980785 0.195090 0.086112
v 1.000000 -0.000000 -0.000000
v 1.000000 -0.000000 0.086112
v 0.980785 -0.195090 -0.000000
v 0.980785 -0.195091 0.086112
v 0.923880 -0.382684 -0.000000
v 0.923880 -0.382684 0.086112
v 0.831470 -0.555570 -0.000000
v 0.831470 -0.555571 0.086112
v 0.707107 -0.707107 -0.000000
v 0.707107 -0.707107 0.086112
v 0.555570 -0.831470 -0.000000
v 0.555570 -0.831470 0.086112
v 0.382683 -0.923880 -0.000000
v 0.382683 -0.923880 0.086112
v 0.195090 -0.980786 -0.000000
v 0.195090 -0.980786 0.086112
v -0.000000 -1.000000 -0.000000
v -0.000000 -1.000000 0.086112
v -0.195091 -0.980785 -0.000000
v -0.195091 -0.980786 0.086112
v -0.382684 -0.923880 -0.000000
v -0.382684 -0.923880 0.086112
v -0.555571 -0.831470 -0.000000
v -0.555571 -0.831470 0.086112
v -0.707107 -0.707107 -0.000000
v -0.707107 -0.707107 0.086112
v -0.831470 -0.555570 -0.000000
v -0.831470 -0.555570 0.086112
v -0.923880 -0.382683 -0.000000
v -0.923880 -0.382683 0.086112
v -0.980785 -0.195090 -0.000000
v -0.980785 -0.195090 0.086112
v -1.000000 0.000001 -0.000000
v -1.000000 0.000001 0.086112
v -0.980785 0.195091 -0.000000
v -0.980785 0.195091 0.086112
v -0.923879 0.382684 -0.000000
v -0.923879 0.382684 0.086112
v -0.831469 0.555571 -0.000000
v -0.831469 0.555571 0.086112
v -0.707106 0.707107 -0.000000
v -0.707106 0.707107 0.086112
v -0.555569 0.831470 -0.000000
v -0.555569 0.831470 0.086112
v -0.382682 0.923880 -0.000000
v -0.382682 0.923880 0.086112
v -0.195089 0.980785 -0.000000
v -0.195089 0.980785 0.086112
v 0.095389 0.479551 0.086112
v 0.000000 0.488946 0.086112
v 0.187112 0.451728 0.086112
v 0.271644 0.406544 0.086112
v 0.345738 0.345737 0.086112
v 0.406544 0.271644 0.086112
v 0.451728 0.187112 0.086112
v 0.479552 0.095389 0.086112
v 0.488947 -0.000000 0.086112
v 0.479552 -0.095389 0.086112
v 0.451728 -0.187112 0.086112
v 0.406544 -0.271644 0.086112
v 0.345738 -0.345738 0.086112
v 0.271644 -0.406545 0.086112
v 0.187112 -0.451728 0.086112
v 0.095389 -0.479552 0.086112
v -0.000000 -0.488947 0.086112
v -0.095389 -0.479552 0.086112
v -0.187112 -0.451728 0.086112
v -0.271644 -0.406544 0.086112
v -0.345738 -0.345737 0.086112
v -0.406544 -0.271644 0.086112
v -0.451728 -0.187112 0.086112
v -0.479552 -0.095389 0.086112
v -0.488947 0.000000 0.086112
v -0.479551 0.095389 0.086112
v -0.451727 0.187112 0.086112
v -0.406544 0.271645 0.086112
v -0.345737 0.345738 0.086112
v -0.271644 0.406544 0.086112
v -0.187111 0.451728 0.086112
v -0.095388 0.479552 0.086112
v 0.095389 0.479551 0.185124
v 0.000000 0.488946 0.185124
v 0.187112 0.451728 0.185124
v 0.271644 0.406544 0.185124
v 0.345738 0.345737 0.185124
v 0.406544 0.271644 0.185124
v 0.451728 0.187112 0.185124
v 0.479552 0.095389 0.185124
v 0.488947 -0.000000 0.185124
v 0.479552 -0.095389 0.185124
v 0.451728 -0.187112 0.185124
v 0.406544 -0.271644 0.185124
v 0.345738 -0.345738 0.185124
v 0.271644 -0.406545 0.185124
v 0.187112 -0.451728 0.185124
v 0.095389 -0.479552 0.185124
v -0.000000 -0.488947 0.185124
v -0.095389 -0.479552 0.185124
v -0.187112 -0.451728 0.185124
v -0.271644 -0.406544 0.185124
v -0.345738 -0.345737 0.185124
v -0.406544 -0.271644 0.185124
v -0.451728 -0.187112 0.185124
v -0.479552 -0.095389 0.185124
v -0.488947 0.000000 0.185124
v -0.479551 0.095389 0.185124
v -0.451727 0.187112 0.185124
v -0.406544 0.271645 0.185124
v -0.345737 0.345738 0.185124
v -0.271644 0.406544 0.185124
v -0.187111 0.451728 0.185124
v -0.095388 0.479552 0.185124
v 0.090385 0.454398 0.185124
v 0.000000 0.463300 0.185124
v 0.177297 0.428033 0.185124
v 0.257396 0.385220 0.185124
v 0.327603 0.327602 0.185124
v 0.385220 0.257395 0.185124
v 0.428033 0.177297 0.185124
v 0.454398 0.090385 0.185124
v 0.463300 -0.000000 0.185124
v 0.454398 -0.090385 0.185124
v 0.428033 -0.177297 0.185124
v 0.385220 -0.257396 0.185124
v 0.327603 -0.327603 0.185124
v 0.257396 -0.385220 0.185124
v 0.177297 -0.428034 0.185124
v 0.090385 -0.454398 0.185124
v -0.000000 -0.463300 0.185124
v -0.090385 -0.454398 0.185124
v -0.177297 -0.428033 0.185124
v -0.257396 -0.385220 0.185124
v -0.327603 -0.327603 0.185124
v -0.385220 -0.257396 0.185124
v -0.428033 -0.177297 0.185124
v -0.454398 -0.090385 0.185124
v -0.463300 0.000000 0.185124
v -0.454398 0.090386 0.185124
v -0.428033 0.177298 0.185124
v -0.385219 0.257396 0.185124
v -0.327602 0.327603 0.185124
v -0.257395 0.385220 0.185124
v -0.177297 0.428033 0.185124
v -0.090385 0.454398 0.185124
v 0.090385 0.454398 0.137270
v 0.000000 0.463300 0.137270
v 0.177297 0.428033 0.137270
v 0.257396 0.385220 0.137270
v 0.327603 0.327602 0.137270
v 0.385220 0.257395 0.137270
v 0.428033 0.177297 0.137270
v 0.454398 0.090385 0.137270
v 0.463300 -0.000000 0.137270
v 0.454398 -0.090385 0.137270
v 0.428033 -0.177297 0.137270
v 0.385220 -0.257396 0.137270
v 0.327603 -0.327603 0.137270
v 0.257396 -0.385220 0.137270
v 0.177297 -0.428034 0.137270
v 0.090385 -0.454398 0.137270
v -0.000000 -0.463300 0.137270
v -0.090385 -0.454398 0.137270
v -0.177297 -0.428033 0.137270
v -0.257396 -0.385220 0.137270
v -0.327603 -0.327603 0.137270
v -0.385220 -0.257396 0.137270
v -0.428033 -0.177297 0.137270
v -0.454398 -0.090385 0.137270
v -0.463300 0.000000 0.137270
v -0.454398 0.090386 0.137270
v -0.428033 0.177298 0.137270
v -0.385219 0.257396 0.137270
v -0.327602 0.327603 0.137270
v -0.257395 0.385220 0.137270
v -0.177297 0.428033 0.137270
v -0.090385 0.454398 0.137270
v 0.071583 0.359874 0.137270
v 0.000000 0.366924 0.137270
v 0.140416 0.338994 0.137270
v 0.203852 0.305086 0.137270
v 0.259455 0.259455 0.137270
v 0.305087 0.203852 0.137270
v 0.338994 0.140416 0.137270
v 0.359874 0.071583 0.137270
v 0.366924 -0.000000 0.137270
v 0.359874 -0.071584 0.137270
v 0.338994 -0.140416 0.137270
v 0.305087 -0.203852 0.137270
v 0.259455 -0.259455 0.137270
v 0.203852 -0.305087 0.137270
v 0.140416 -0.338994 0.137270
v 0.071583 -0.359874 0.137270
v -0.000000 -0.366925 0.137270
v -0.071583 -0.359874 0.137270
v -0.140416 -0.338994 0.137270
v -0.203852 -0.305087 0.137270
v -0.259455 -0.259455 0.137270
v -0.305087 -0.203852 0.137270
v -0.338994 -0.140416 0.137270
v -0.359874 -0.071583 0.137270
v -0.366924 0.000000 0.137270
v -0.359874 0.071584 0.137270
v -0.338994 0.140416 0.137270
v -0.305086 0.203853 0.137270
v -0.259454 0.259455 0.137270
v -0.203852 0.305087 0.137270
v -0.140415 0.338994 0.137270
v -0.071583 0.359874 0.137270
vt 0.506338 0.465432
vt 0.488029 0.450166
vt 0.516416 0.407555
vt 0.537362 0.418967
vt 0.535965 0.360203
vt 0.558745 0.367317
vt 0.545911 0.309926
vt 0.569652 0.312462
vt 0.545862 0.258652
vt 0.569652 0.256508
vt 0.535810 0.208352
vt 0.558733 0.201607
vt 0.516130 0.160964
vt 0.537304 0.149872
vt 0.487575 0.118313
vt 0.506183 0.103298
vt 0.451236 0.082044
vt 0.466560 0.063682
vt 0.408508 0.053556
vt 0.419958 0.032552
vt 0.361033 0.033948
vt 0.368166 0.011109
vt 0.310634 0.023977
vt 0.313175 0.000180
vt 0.259248 0.024030
vt 0.257097 0.000190
vt 0.208847 0.034108
vt 0.202086 0.011141
vt 0.161370 0.053829
vt 0.150256 0.032615
vt 0.118639 0.082438
vt 0.103597 0.063795
vt 0.082298 0.118842
vt 0.063903 0.103486
vt 0.053745 0.161650
vt 0.032701 0.150171
vt 0.034081 0.209223
vt 0.011192 0.202065
vt 0.024067 0.259741
vt 0.000209 0.257183
vt 0.024099 0.311274
vt 0.000180 0.313419
vt 0.034197 0.361853
vt 0.011124 0.368634
vt 0.054025 0.409547
vt 0.032661 0.420751
vt 0.082969 0.452506
vt 0.064105 0.467856
vt 0.120338 0.488882
vt 0.104743 0.508299
vt 0.163412 0.517506
vt 0.152672 0.538460
vt 0.211497 0.535931
vt 0.204786 0.559443
vt 0.261701 0.545722
vt 0.259790 0.568768
vt 0.312422 0.544877
vt 0.314722 0.568330
vt 0.362337 0.534607
vt 0.369104 0.557347
vt 0.409455 0.514907
vt 0.420525 0.535964
vt 0.203194 0.185284
vt 0.185326 0.203242
vt 0.451907 0.486409
vt 0.466880 0.504934
vt 0.382796 0.647199
vt 0.406363 0.682470
vt 0.422596 0.721660
vt 0.430871 0.763264
vt 0.430871 0.805684
vt 0.422596 0.847288
vt 0.406363 0.886478
vt 0.382796 0.921749
vt 0.352801 0.951744
vt 0.317531 0.975311
vt 0.278340 0.991544
vt 0.236736 0.999820
vt 0.194316 0.999820
vt 0.152712 0.991544
vt 0.113521 0.975311
vt 0.078251 0.951744
vt 0.048256 0.921749
vt 0.024689 0.886479
vt 0.008456 0.847288
vt 0.000180 0.805684
vt 0.000180 0.763264
vt 0.008456 0.721660
vt 0.024689 0.682470
vt 0.048256 0.647199
vt 0.078251 0.617204
vt 0.113522 0.593637
vt 0.152712 0.577404
vt 0.194316 0.569128
vt 0.236736 0.569129
vt 0.278340 0.577404
vt 0.317530 0.593637
vt 0.352801 0.617204
vt 0.156786 0.272665
vt 0.161664 0.247786
vt 0.184570 0.254545
vt 0.180577 0.274821
vt 0.203978 0.385190
vt 0.225171 0.399113
vt 0.408940 0.321845
vt 0.413800 0.297059
vt 0.297708 0.156350
vt 0.272400 0.156413
vt 0.156861 0.298025
vt 0.161893 0.322892
vt 0.323450 0.408043
vt 0.346704 0.398264
vt 0.384923 0.202694
vt 0.366999 0.184853
vt 0.171303 0.224345
vt 0.248662 0.408606
vt 0.413737 0.271793
vt 0.247585 0.161414
vt 0.171698 0.346303
vt 0.367618 0.384152
vt 0.345934 0.170850
vt 0.273489 0.413322
vt 0.408747 0.247017
vt 0.224216 0.171162
vt 0.185908 0.367347
vt 0.385393 0.366239
vt 0.399346 0.345203
vt 0.322538 0.161226
vt 0.298739 0.413125
vt 0.399019 0.223685
vt 0.192677 0.334838
vt 0.184706 0.315758
vt 0.190001 0.314147
vt 0.197555 0.332221
vt 0.386012 0.254096
vt 0.378096 0.235064
vt 0.180621 0.295491
vt 0.366619 0.217939
vt 0.352018 0.203380
vt 0.334854 0.191949
vt 0.204232 0.351989
vt 0.315786 0.184085
vt 0.218922 0.366539
vt 0.295547 0.180093
vt 0.236165 0.377921
vt 0.274913 0.180127
vt 0.255285 0.385704
vt 0.254678 0.184187
vt 0.275533 0.389601
vt 0.235619 0.192119
vt 0.366880 0.351308
vt 0.378275 0.334160
vt 0.296135 0.389483
vt 0.218470 0.203619
vt 0.386115 0.315116
vt 0.316309 0.385364
vt 0.203890 0.218246
vt 0.390096 0.294906
vt 0.335294 0.377405
vt 0.192443 0.235442
vt 0.390062 0.274302
vt 0.352368 0.365908
vt 0.238752 0.373035
vt 0.222417 0.362251
vt 0.228599 0.354577
vt 0.243310 0.364307
vt 0.348514 0.207646
vt 0.332250 0.196817
vt 0.208502 0.348467
vt 0.314182 0.189369
vt 0.295005 0.185590
vt 0.275454 0.185625
vt 0.256866 0.380412
vt 0.256281 0.189475
vt 0.276052 0.384108
vt 0.238224 0.196993
vt 0.362616 0.347816
vt 0.373411 0.331564
vt 0.295576 0.383997
vt 0.221976 0.207893
vt 0.380838 0.313517
vt 0.314695 0.380094
vt 0.208164 0.221755
vt 0.384607 0.294365
vt 0.332686 0.372550
vt 0.197320 0.238049
vt 0.384572 0.274841
vt 0.348865 0.361653
vt 0.189863 0.256150
vt 0.380731 0.255696
vt 0.186083 0.275362
vt 0.373229 0.237663
vt 0.186128 0.294946
vt 0.362351 0.221439
vt 0.294522 0.374229
vt 0.276920 0.374315
vt 0.278659 0.355777
vt 0.292619 0.355714
vt 0.294098 0.195387
vt 0.276477 0.195414
vt 0.259628 0.370969
vt 0.259195 0.198878
vt 0.242917 0.205649
vt 0.354980 0.341639
vt 0.364718 0.326991
vt 0.228269 0.215468
vt 0.371419 0.310725
vt 0.311763 0.370720
vt 0.215816 0.227959
vt 0.374823 0.293461
vt 0.327988 0.363927
vt 0.206037 0.242641
vt 0.374798 0.275862
vt 0.342579 0.354109
vt 0.199311 0.258953
vt 0.371342 0.258603
vt 0.195898 0.276267
vt 0.364586 0.242347
vt 0.195932 0.293915
vt 0.354786 0.227719
vt 0.199414 0.311219
vt 0.342320 0.215283
vt 0.206214 0.327507
vt 0.327664 0.205518
vt 0.216070 0.342150
vt 0.311382 0.198799
vt 0.251732 0.222081
vt 0.240123 0.229867
vt 0.348287 0.318256
vt 0.353600 0.305356
vt 0.306294 0.352934
vt 0.230254 0.239771
vt 0.356299 0.291667
vt 0.319164 0.347546
vt 0.222505 0.251411
vt 0.356278 0.277713
vt 0.330735 0.339759
vt 0.217176 0.264340
vt 0.353537 0.264030
vt 0.340566 0.329872
vt 0.214472 0.278062
vt 0.348180 0.251142
vt 0.214500 0.292048
vt 0.340410 0.239547
vt 0.217258 0.305758
vt 0.330526 0.229691
vt 0.222642 0.318661
vt 0.318907 0.221953
vt 0.230447 0.330263
vt 0.306000 0.216632
vt 0.240368 0.340111
vt 0.292301 0.213932
vt 0.252020 0.347828
vt 0.278333 0.213958
vt 0.264951 0.353116
vt 0.264635 0.216709
vn 0.0000 1.0000 0.0000
vn 0.1951 0.9808 0.0000
vn 0.3827 0.9239 0.0000
vn 0.5556 0.8315 0.0000
vn 0.7071 0.7071 0.0000
vn 0.8315 0.5556 0.0000
vn 0.9239 0.3827 0.0000
vn 0.9808 0.1951 0.0000
vn 1.0000 0.0000 0.0000
vn 0.9808 -0.1951 -0.0000
vn 0.9239 -0.3827 -0.0000
vn 0.8315 -0.5556 -0.0000
vn 0.7071 -0.7071 -0.0000
vn 0.5556 -0.8315 -0.0000
vn 0.3827 -0.9239 -0.0000
vn 0.1951 -0.9808 -0.0000
vn -0.0000 -1.0000 -0.0000
vn -0.1951 -0.9808 -0.0000
vn -0.3827 -0.9239 -0.0000
vn -0.5556 -0.8315 -0.0000
vn -0.7071 -0.7071 -0.0000
vn -0.8315 -0.5556 -0.0000
vn -0.9239 -0.3827 -0.0000
vn -0.9808 -0.1951 -0.0000
vn -1.0000 0.0000 -0.0000
vn -0.9808 0.1951 0.0000
vn -0.9239 0.3827 0.0000
vn -0.8315 0.5556 0.0000
vn -0.7071 0.7071 0.0000
vn -0.5556 0.8315 0.0000
vn -0.3827 0.9239 0.0000
vn 0.0000 -0.0000 1.0000
vn -0.1951 0.9808 0.0000
vn -0.0000 0.0000 -1.0000
usemtl Stand
s 1
f 1/1/1 2/2/1 4/3/2 3/4/2
f 3/4/2 4/3/2 6/5/3 5/6/3
f 5/6/3 6/5/3 8/7/4 7/8/4
f 7/8/4 8/7/4 10/9/5 9/10/5
f 9/10/5 10/9/5 12/11/6 11/12/6
f 11/12/6 12/11/6 14/13/7 13/14/7
f 13/14/7 14/13/7 16/15/8 15/16/8
f 15/16/8 16/15/8 18/17/9 17/18/9
f 17/18/9 18/17/9 20/19/10 19/20/10
f 19/20/10 20/19/10 22/21/11 21/22/11
f 21/22/11 22/21/11 24/23/12 23/24/12
f 23/24/12 24/23/12 26/25/13 25/26/13
f 25/26/13 26/25/13 28/27/14 27/28/14
f 27/28/14 28/27/14 30/29/15 29/30/15
f 29/30/15 30/29/15 32/31/16 31/32/16
f 31/32/16 32/31/16 34/33/17 33/34/17
f 33/34/17 34/33/17 36/35/18 35/36/18
f 35/36/18 36/35/18 38/37/19 37/38/19
f 37/38/19 38/37/19 40/39/20 39/40/20
f 39/40/20 40/39/20 42/41/21 41/42/21
f 41/42/21 42/41/21 44/43/22 43/44/22
f 43/44/22 44/43/22 46/45/23 45/46/23
f 45/46/23 46/45/23 48/47/24 47/48/24
f 47/48/24 48/47/24 50/49/25 49/50/25
f 49/50/25 50/49/25 52/51/26 51/52/26
f 51/52/26 52/51/26 54/53/27 53/54/27
f 53/54/27 54/53/27 56/55/28 55/56/28
f 55/56/28 56/55/28 58/57/29 57/58/29
f 57/58/29 58/57/29 60/59/30 59/60/30
f 59/60/30 60/59/30 62/61/31 61/62/31
f 34/33/32 32/31/32 80/63/32 81/64/32
f 61/62/31 62/61/31 64/65/33 63/66/33
f 63/66/33 64/65/33 2/2/1 1/1/1
f 1/67/34 3/68/34 5/69/34 7/70/34 9/71/34 11/72/34 13/73/34 15/74/34 17/75/34 19/76/34 21/77/34 23/78/34 25/79/34 27/80/34 29/81/34 31/82/34 33/83/34 35/84/34 37/85/34 39/86/34 41/87/34 43/88/34 45/89/34 47/90/34 49/91/34 51/92/34 53/93/34 55/94/34 57/95/34 59/96/34 61/97/34 63/98/34
f 84/99/20 83/100/19 115/101/19 116/102/20
f 52/51/32 50/49/32 89/103/32 90/104/32
f 8/7/32 6/5/32 67/105/32 68/106/32
f 26/25/32 24/23/32 76/107/32 77/108/32
f 44/43/32 42/41/32 85/109/32 86/110/32
f 62/61/32 60/59/32 94/111/32 95/112/32
f 18/17/32 16/15/32 72/113/32 73/114/32
f 36/35/32 34/33/32 81/64/32 82/115/32
f 54/53/32 52/51/32 90/104/32 91/116/32
f 10/9/32 8/7/32 68/106/32 69/117/32
f 28/27/32 26/25/32 77/108/32 78/118/32
f 46/45/32 44/43/32 86/110/32 87/119/32
f 64/65/32 62/61/32 95/112/32 96/120/32
f 20/19/32 18/17/32 73/114/32 74/121/32
f 38/37/32 36/35/32 82/115/32 83/100/32
f 56/55/32 54/53/32 91/116/32 92/122/32
f 12/11/32 10/9/32 69/117/32 70/123/32
f 30/29/32 28/27/32 78/118/32 79/124/32
f 48/47/32 46/45/32 87/119/32 88/125/32
f 4/3/32 2/2/32 66/126/32 65/127/32
f 2/2/32 64/65/32 96/120/32 66/126/32
f 22/21/32 20/19/32 74/121/32 75/128/32
f 40/39/32 38/37/32 83/100/32 84/99/32
f 58/57/32 56/55/32 92/122/32 93/129/32
f 14/13/32 12/11/32 70/123/32 71/130/32
f 32/31/32 30/29/32 79/124/32 80/63/32
f 50/49/32 48/47/32 88/125/32 89/103/32
f 6/5/32 4/3/32 65/127/32 67/105/32
f 24/23/32 22/21/32 75/128/32 76/107/32
f 42/41/32 40/39/32 84/99/32 85/109/32
f 60/59/32 58/57/32 93/129/32 94/111/32
f 16/15/32 14/13/32 71/130/32 72/113/32
f 119/131/32 118/132/32 150/133/32 151/134/32
f 71/130/7 70/123/6 102/135/6 103/136/7
f 85/109/21 84/99/20 116/102/20 117/137/21
f 72/113/8 71/130/7 103/136/7 104/138/8
f 86/110/22 85/109/21 117/137/21 118/132/22
f 73/114/9 72/113/8 104/138/8 105/139/9
f 87/119/23 86/110/22 118/132/22 119/131/23
f 74/121/10 73/114/9 105/139/9 106/140/10
f 88/125/24 87/119/23 119/131/23 120/141/24
f 75/128/11 74/121/10 106/140/10 107/142/11
f 89/103/25 88/125/24 120/141/24 121/143/25
f 76/107/12 75/128/11 107/142/11 108/144/12
f 90/104/26 89/103/25 121/143/25 122/145/26
f 77/108/13 76/107/12 108/144/12 109/146/13
f 91/116/27 90/104/26 122/145/26 123/147/27
f 78/118/14 77/108/13 109/146/13 110/148/14
f 92/122/28 91/116/27 123/147/27 124/149/28
f 79/124/15 78/118/14 110/148/14 111/150/15
f 65/127/2 66/126/1 98/151/1 97/152/2
f 93/129/29 92/122/28 124/149/28 125/153/29
f 80/63/16 79/124/15 111/150/15 112/154/16
f 67/105/3 65/127/2 97/152/2 99/155/3
f 94/111/30 93/129/29 125/153/29 126/156/30
f 81/64/17 80/63/16 112/154/16 113/157/17
f 68/106/4 67/105/3 99/155/3 100/158/4
f 95/112/31 94/111/30 126/156/30 127/159/31
f 82/115/18 81/64/17 113/157/17 114/160/18
f 69/117/5 68/106/4 100/158/4 101/161/5
f 96/120/33 95/112/31 127/159/31 128/162/33
f 83/100/19 82/115/18 114/160/18 115/101/19
f 70/123/6 69/117/5 101/161/5 102/135/6
f 66/126/1 96/120/33 128/162/33 98/151/1
f 154/163/10 153/164/9 185/165/9 186/166/10
f 106/140/32 105/139/32 137/167/32 138/168/32
f 120/141/32 119/131/32 151/134/32 152/169/32
f 107/142/32 106/140/32 138/168/32 139/170/32
f 121/143/32 120/141/32 152/169/32 153/164/32
f 108/144/32 107/142/32 139/170/32 140/171/32
f 122/145/32 121/143/32 153/164/32 154/163/32
f 109/146/32 108/144/32 140/171/32 141/172/32
f 123/147/32 122/145/32 154/163/32 155/173/32
f 110/148/32 109/146/32 141/172/32 142/174/32
f 124/149/32 123/147/32 155/173/32 156/175/32
f 111/150/32 110/148/32 142/174/32 143/176/32
f 97/152/32 98/151/32 130/177/32 129/178/32
f 125/153/32 124/149/32 156/175/32 157/179/32
f 112/154/32 111/150/32 143/176/32 144/180/32
f 99/155/32 97/152/32 129/178/32 131/181/32
f 126/156/32 125/153/32 157/179/32 158/182/32
f 113/157/32 112/154/32 144/180/32 145/183/32
f 100/158/32 99/155/32 131/181/32 132/184/32
f 127/159/32 126/156/32 158/182/32 159/185/32
f 114/160/32 113/157/32 145/183/32 146/186/32
f 101/161/32 100/158/32 132/184/32 133/187/32
f 128/162/32 127/159/32 159/185/32 160/188/32
f 115/101/32 114/160/32 146/186/32 147/189/32
f 102/135/32 101/161/32 133/187/32 134/190/32
f 98/151/32 128/162/32 160/188/32 130/177/32
f 116/102/32 115/101/32 147/189/32 148/191/32
f 103/136/32 102/135/32 134/190/32 135/192/32
f 117/137/32 116/102/32 148/191/32 149/193/32
f 104/138/32 103/136/32 135/192/32 136/194/32
f 118/132/32 117/137/32 149/193/32 150/133/32
f 105/139/32 104/138/32 136/194/32 137/167/32
f 189/195/32 188/196/32 220/197/32 221/198/32
f 141/172/29 140/171/28 172/199/28 173/200/29
f 155/173/11 154/163/10 186/166/10 187/201/11
f 142/174/30 141/172/29 173/200/29 174/202/30
f 156/175/12 155/173/11 187/201/11 188/196/12
f 143/176/31 142/174/30 174/202/30 175/203/31
f 129/178/18 130/177/17 162/204/17 161/205/18
f 157/179/13 156/175/12 188/196/12 189/195/13
f 144/180/33 143/176/31 175/203/31 176/206/33
f 131/181/19 129/178/18 161/205/18 163/207/19
f 158/182/14 157/179/13 189/195/13 190/208/14
f 145/183/1 144/180/33 176/206/33 177/209/1
f 132/184/20 131/181/19 163/207/19 164/210/20
f 159/185/15 158/182/14 190/208/14 191/211/15
f 146/186/2 145/183/1 177/209/1 178/212/2
f 133/187/21 132/184/20 164/210/20 165/213/21
f 160/188/16 159/185/15 191/211/15 192/214/16
f 147/189/3 146/186/2 178/212/2 179/215/3
f 134/190/22 133/187/21 165/213/21 166/216/22
f 130/177/17 160/188/16 192/214/16 162/204/17
f 148/191/4 147/189/3 179/215/3 180/217/4
f 135/192/23 134/190/22 166/216/22 167/218/23
f 149/193/5 148/191/4 180/217/4 181/219/5
f 136/194/24 135/192/23 167/218/23 168/220/24
f 150/133/6 149/193/5 181/219/5 182/221/6
f 137/167/25 136/194/24 168/220/24 169/222/25
f 151/134/7 150/133/6 182/221/6 183/223/7
f 138/168/26 137/167/25 169/222/25 170/224/26
f 152/169/8 151/134/7 183/223/7 184/225/8
f 139/170/27 138/168/26 170/224/26 171/226/27
f 153/164/9 152/169/8 184/225/8 185/165/9
f 140/171/28 139/170/27 171/226/27 172/199/28
f 176/206/32 175/203/32 207/227/32 208/228/32
f 163/207/32 161/205/32 193/229/32 195/230/32
f 190/208/32 189/195/32 221/198/32 222/231/32
f 177/209/32 176/206/32 208/228/32 209/232/32
f 164/210/32 163/207/32 195/230/32 196/233/32
f 191/211/32 190/208/32 222/231/32 223/234/32
f 178/212/32 177/209/32 209/232/32 210/235/32
f 165/213/32 164/210/32 196/233/32 197/236/32
f 192/214/32 191/211/32 223/234/32 224/237/32
f 179/215/32 178/212/32 210/235/32 211/238/32
f 166/216/32 165/213/32 197/236/32 198/239/32
f 162/204/32 192/214/32 224/237/32 194/240/32
f 180/217/32 179/215/32 211/238/32 212/241/32
f 167/218/32 166/216/32 198/239/32 199/242/32
f 181/219/32 180/217/32 212/241/32 213/243/32
f 168/220/32 167/218/32 199/242/32 200/244/32
f 182/221/32 181/219/32 213/243/32 214/245/32
f 169/222/32 168/220/32 200/244/32 201/246/32
f 183/223/32 182/221/32 214/245/32 215/247/32
f 170/224/32 169/222/32 201/246/32 202/248/32
f 184/225/32 183/223/32 215/247/32 216/249/32
f 171/226/32 170/224/32 202/248/32 203/250/32
f 185/165/32 184/225/32 216/249/32 217/251/32
f 172/199/32 171/226/32 203/250/32 204/252/32
f 186/166/32 185/165/32 217/251/32 218/253/32
f 173/200/32 172/199/32 204/252/32 205/254/32
f 187/201/32 186/166/32 218/253/32 219/255/32
f 174/202/32 173/200/32 205/254/32 206/256/32
f 188/196/32 187/201/32 219/255/32 220/197/32
f 175/203/32 174/202/32 206/256/32 207/227/32
f 161/205/32 162/204/32 194/240/32 193/229/32
