# Blender v3.2.1 OBJ File: 'Stop Button 02.blend'
# www.blender.org
mtllib Stop Button 02.mtl
o cylinder_Cylinder.003
v 0.071583 0.359874 0.137270
v 0.000000 0.366924 0.137270
v 0.140416 0.338994 0.137270
v 0.203852 0.305086 0.137270
v 0.259455 0.259455 0.137270
v 0.305087 0.203852 0.137270
v 0.338994 0.140416 0.137270
v 0.359874 0.071583 0.137270
v 0.366924 -0.000000 0.137270
v 0.359874 -0.071584 0.137270
v 0.338994 -0.140416 0.137270
v 0.305087 -0.203852 0.137270
v 0.259455 -0.259455 0.137270
v 0.203852 -0.305087 0.137270
v 0.140416 -0.338994 0.137270
v 0.071583 -0.359874 0.137270
v -0.000000 -0.366925 0.137270
v -0.071583 -0.359874 0.137270
v -0.140416 -0.338994 0.137270
v -0.203852 -0.305087 0.137270
v -0.259455 -0.259455 0.137270
v -0.305087 -0.203852 0.137270
v -0.338994 -0.140416 0.137270
v -0.359874 -0.071583 0.137270
v -0.366924 0.000000 0.137270
v -0.359874 0.071584 0.137270
v -0.338994 0.140416 0.137270
v -0.305086 0.203853 0.137270
v -0.259454 0.259455 0.137270
v -0.203852 0.305087 0.137270
v -0.140415 0.338994 0.137270
v -0.071583 0.359874 0.137270
v 0.071583 0.359874 0.723016
v 0.000000 0.366924 0.723016
v 0.140416 0.338994 0.723016
v 0.203852 0.305086 0.723016
v 0.259455 0.259455 0.723016
v 0.305087 0.203852 0.723016
v 0.338994 0.140416 0.723016
v 0.359874 0.071583 0.723016
v 0.366924 -0.000000 0.723016
v 0.359874 -0.071584 0.723016
v 0.338994 -0.140416 0.723016
v 0.305087 -0.203852 0.723016
v 0.259455 -0.259455 0.723016
v 0.203852 -0.305087 0.723016
v 0.140416 -0.338994 0.723016
v 0.071583 -0.359874 0.723016
v -0.000000 -0.366925 0.723016
v -0.071583 -0.359874 0.723016
v -0.140416 -0.338994 0.723016
v -0.203852 -0.305087 0.723016
v -0.259455 -0.259455 0.723016
v -0.305087 -0.203852 0.723016
v -0.338994 -0.140416 0.723016
v -0.359874 -0.071583 0.723016
v -0.366924 0.000000 0.723016
v -0.359874 0.071584 0.723016
v -0.338994 0.140416 0.723016
v -0.305086 0.203853 0.723016
v -0.259454 0.259455 0.723016
v -0.203852 0.305087 0.723016
v -0.140415 0.338994 0.723016
v -0.071583 0.359874 0.723016
vt 0.330735 0.339759
vt 0.319164 0.347546
vt 0.288789 0.291887
vt 0.290099 0.291044
vt 0.217176 0.264340
vt 0.222505 0.251411
vt 0.278670 0.280958
vt 0.278023 0.282376
vt 0.353537 0.264030
vt 0.356278 0.277713
vt 0.293285 0.284238
vt 0.293059 0.282724
vt 0.340566 0.329872
vt 0.291226 0.289954
vt 0.214472 0.278062
vt 0.277664 0.283890
vt 0.348180 0.251142
vt 0.292538 0.281292
vt 0.214500 0.292048
vt 0.277608 0.285444
vt 0.340410 0.239547
vt 0.291746 0.279997
vt 0.217258 0.305758
vt 0.277855 0.286975
vt 0.330526 0.229691
vt 0.290712 0.278889
vt 0.222642 0.318661
vt 0.278395 0.288426
vt 0.318907 0.221953
vt 0.289478 0.278012
vt 0.230447 0.330263
vt 0.279178 0.289726
vt 0.306000 0.216632
vt 0.288089 0.277399
vt 0.240368 0.340111
vt 0.280204 0.290842
vt 0.292301 0.213932
vt 0.286588 0.277059
vt 0.252020 0.347828
vt 0.281433 0.291728
vt 0.278333 0.213958
vt 0.285038 0.277008
vt 0.264951 0.353116
vt 0.282817 0.292352
vt 0.264635 0.216709
vt 0.283504 0.277260
vt 0.278659 0.355777
vt 0.284303 0.292689
vt 0.251732 0.222081
vt 0.282046 0.277807
vt 0.348287 0.318256
vt 0.292162 0.288694
vt 0.292619 0.355714
vt 0.285833 0.292724
vt 0.240123 0.229867
vt 0.280721 0.278629
vt 0.353600 0.305356
vt 0.292831 0.287283
vt 0.306294 0.352934
vt 0.287348 0.292454
vt 0.230254 0.239771
vt 0.279581 0.279693
vt 0.356299 0.291667
vt 0.293208 0.285777
vn -0.1951 0.9808 0.0000
vn -0.3827 0.9239 0.0000
vn -0.3827 -0.9239 -0.0000
vn -0.1951 -0.9808 -0.0000
vn 0.8315 0.5556 0.0000
vn 0.7071 0.7071 0.0000
vn 0.0000 1.0000 0.0000
vn -0.5556 -0.8315 -0.0000
vn 0.9239 0.3827 0.0000
vn -0.7071 -0.7071 -0.0000
vn 0.9808 0.1951 0.0000
vn -0.8315 -0.5556 -0.0000
vn 1.0000 -0.0000 0.0000
vn -0.9239 -0.3827 -0.0000
vn 0.9808 -0.1951 -0.0000
vn -0.9808 -0.1951 -0.0000
vn 0.9239 -0.3827 -0.0000
vn -1.0000 0.0000 0.0000
vn 0.8315 -0.5556 -0.0000
vn -0.9808 0.1951 0.0000
vn 0.7071 -0.7071 -0.0000
vn -0.9239 0.3827 0.0000
vn 0.5556 -0.8315 -0.0000
vn -0.8315 0.5556 0.0000
vn 0.3827 -0.9239 -0.0000
vn 0.1951 0.9808 0.0000
vn -0.7071 0.7071 0.0000
vn 0.1951 -0.9808 -0.0000
vn 0.3827 0.9239 0.0000
vn -0.5556 0.8315 0.0000
vn -0.0000 -1.0000 -0.0000
vn 0.5556 0.8315 0.0000
vn 0.0000 0.0000 -1.0000
vn -0.0000 -0.0000 1.0000
usemtl Stop_Button_02_Mat
s 1
f 32/1/1 31/2/2 63/3/2 64/4/1
f 19/5/3 18/6/4 50/7/4 51/8/3
f 6/9/5 5/10/6 37/11/6 38/12/5
f 2/13/7 32/1/1 64/4/1 34/14/7
f 20/15/8 19/5/3 51/8/3 52/16/8
f 7/17/9 6/9/5 38/12/5 39/18/9
f 21/19/10 20/15/8 52/16/8 53/20/10
f 8/21/11 7/17/9 39/18/9 40/22/11
f 22/23/12 21/19/10 53/20/10 54/24/12
f 9/25/13 8/21/11 40/22/11 41/26/13
f 23/27/14 22/23/12 54/24/12 55/28/14
f 10/29/15 9/25/13 41/26/13 42/30/15
f 24/31/16 23/27/14 55/28/14 56/32/16
f 11/33/17 10/29/15 42/30/15 43/34/17
f 25/35/18 24/31/16 56/32/16 57/36/18
f 12/37/19 11/33/17 43/34/17 44/38/19
f 26/39/20 25/35/18 57/36/18 58/40/20
f 13/41/21 12/37/19 44/38/19 45/42/21
f 27/43/22 26/39/20 58/40/20 59/44/22
f 14/45/23 13/41/21 45/42/21 46/46/23
f 28/47/24 27/43/22 59/44/22 60/48/24
f 15/49/25 14/45/23 46/46/23 47/50/25
f 1/51/26 2/13/7 34/14/7 33/52/26
f 29/53/27 28/47/24 60/48/24 61/54/27
f 16/55/28 15/49/25 47/50/25 48/56/28
f 3/57/29 1/51/26 33/52/26 35/58/29
f 30/59/30 29/53/27 61/54/27 62/60/30
f 17/61/31 16/55/28 48/56/28 49/62/31
f 4/63/32 3/57/29 35/58/29 36/64/32
f 31/2/2 30/59/30 62/60/30 63/3/2
f 18/6/4 17/61/31 49/62/31 50/7/4
f 5/10/6 4/63/32 36/64/32 37/11/6
f 1/51/33 3/57/33 4/63/33 5/10/33 6/9/33 7/17/33 8/21/33 9/25/33 10/29/33 11/33/33 12/37/33 13/41/33 14/45/33 15/49/33 16/55/33 17/61/33 18/6/33 19/5/33 20/15/33 21/19/33 22/23/33 23/27/33 24/31/33 25/35/33 26/39/33 27/43/33 28/47/33 29/53/33 30/59/33 31/2/33 32/1/33 2/13/33
f 33/52/34 34/14/34 64/4/34 63/3/34 62/60/34 61/54/34 60/48/34 59/44/34 58/40/34 57/36/34 56/32/34 55/28/34 54/24/34 53/20/34 52/16/34 51/8/34 50/7/34 49/62/34 48/56/34 47/50/34 46/46/34 45/42/34 44/38/34 43/34/34 42/30/34 41/26/34 40/22/34 39/18/34 38/12/34 37/11/34 36/64/34 35/58/34
